Coordinates
version=1
nRows=12
nColumns=34
inDegrees=yes

Units are S.I. units (second, meters, Newtons, ...)
If the header above contains a line with 'inDegrees', this indicates whether rotational values are in degrees (yes) or radians (no).

endheader
time	pelvis_tilt	pelvis_list	pelvis_rotation	pelvis_tx	pelvis_ty	pelvis_tz	hip_flexion_r	hip_adduction_r	hip_rotation_r	knee_angle_r	ankle_angle_r	subtalar_angle_r	mtp_angle_r	hip_flexion_l	hip_adduction_l	hip_rotation_l	knee_angle_l	ankle_angle_l	subtalar_angle_l	mtp_angle_l	lumbar_extension	lumbar_bending	lumbar_rotation	arm_flex_r	arm_add_r	arm_rot_r	elbow_flex_r	pro_sup_r	arm_flex_l	arm_add_l	arm_rot_l	elbow_flex_l	pro_sup_l
      0.00000000	     -7.52526565	     -8.06005617	    -11.28537115	      0.81654789	      0.87101943	     -0.53588512	     15.57283345	      6.56057658	    -10.99813778	     10.58248392	     29.27247019	     15.06248651	      0.00000000	     16.67396315	     -7.98324661	    -12.93933395	      9.92178028	      9.45585228	      1.16681551	      0.00000000	     -6.55728675	      3.87241529	      1.88764885	     24.52157581	     20.81789747	     66.35017631	    132.78178300	    119.74817918	     15.10759908	     13.53345286	     16.64529349	    149.55267532	    118.96370894
      0.01666670	     -4.00948793	     -6.62853748	    -10.38529510	      0.81240726	      0.88204923	     -0.53651789	     12.17346036	      4.71993378	     -9.04051703	     10.26397300	     26.71028412	     16.55097291	      0.00000000	     12.83694158	     -4.74958172	    -13.51308828	      9.62740603	     10.64767643	     -0.60829840	      0.00000000	    -12.01573702	      0.11491165	      3.11785085	     26.85219923	     20.95224059	     65.67111799	    135.63504756	    119.33334462	     17.16559669	     15.01197525	     17.24933874	    147.25196039	    119.45165780
      0.03333330	     -3.57353642	     -5.06401875	    -10.79443897	      0.80982016	      0.88461309	     -0.53430043	     11.49450739	      3.62941911	    -10.04648741	      8.89293492	     23.82807193	     16.25626425	      0.00000000	     11.90354953	     -2.96694205	    -15.72274376	      7.96536956	      9.14535232	     -1.60418372	      0.00000000	    -12.43682477	     -2.08753571	      4.37332356	     27.46980181	     21.81294027	     65.64990161	    134.67423849	    119.26967411	     17.01196427	     15.23799823	     16.87498695	    144.98788376	    119.50213071
      0.05000000	     -2.53689591	     -5.23268979	    -10.96598422	      0.80602021	      0.88905346	     -0.53577597	     10.44704940	      3.71073102	     -9.70993405	      8.00732466	     21.45341992	     15.86583084	      0.00000000	     10.21967938	     -2.77041005	    -16.07084920	      6.55835613	      8.76638701	     -3.14131557	      0.00000000	    -14.52949040	     -2.32521666	      5.10458118	     28.40276271	     22.80813500	     68.78204534	    133.74510074	    119.24449557	     18.27098251	     16.02994577	     17.85128498	    141.23879116	    119.42024730
      0.06666670	     -1.55475577	     -5.69909009	    -10.83264010	      0.80375785	      0.89297649	     -0.53550293	      9.23553798	      4.18036116	     -8.49724145	      7.21403924	     20.59414966	     15.75205459	      0.00000000	      8.68768326	     -2.84435504	    -15.99832465	      5.71539422	      7.91719229	     -3.95936257	      0.00000000	    -16.86293029	     -2.27044182	      5.74446592	     29.48919781	     23.69575034	     72.06581486	    133.26436986	    119.10465386	     18.94805488	     16.63305700	     19.78493936	    139.72742317	    119.13148332
      0.08333330	     -0.96383983	     -5.48275653	    -10.77689700	      0.80121710	      0.89331012	     -0.53434170	      8.53477163	      3.88208513	     -8.26626480	      6.44264553	     18.07106909	     15.51973705	      0.00000000	      8.12577266	     -2.55478680	    -15.89374648	      5.65983899	      5.87211468	     -4.55350579	      0.00000000	    -18.44686500	     -2.95786994	      6.01200226	     30.37467075	     24.68713460	     74.90563213	    133.21904639	    118.67065348	     20.08051608	     16.87736373	     22.70057341	    139.41634069	    118.50484278
      0.10000000	     -0.90952856	     -5.54352660	    -10.41679393	      0.80617146	      0.89017363	     -0.53300969	      8.46285403	      3.98488779	     -8.17991041	      6.44143579	     18.08612961	     15.55094820	      0.00000000	      7.93036874	     -2.67716219	    -15.89456754	      5.68614506	      5.88589180	     -4.57548999	      0.00000000	    -18.29164101	     -3.08212642	      6.12003002	     30.36900784	     24.84677233	     75.09063282	    133.18143425	    118.67032429	     20.04658831	     16.89230307	     22.74989941	    139.38057417	    118.49430849
      0.11666670	     -0.02435914	     -5.52131063	    -10.41080535	      0.80414935	      0.88842635	     -0.53127643	      7.11942897	      3.92429632	     -7.66806742	      5.49564370	     17.82955647	     15.22504145	      0.00000000	      6.68624930	     -2.51957176	    -15.29186599	      5.44964428	      6.13548941	     -4.62212877	      0.00000000	    -19.73295905	     -3.42550329	      7.11874361	     31.87085105	     25.52244124	     78.45810349	    131.34370413	    118.49249492	     20.08581905	     17.39212783	     25.28458994	    138.41675442	    118.15727763
      0.13333330	      0.71468311	     -5.46080705	    -10.28850315	      0.80559902	      0.88791031	     -0.52996503	      6.18901422	      3.86641055	     -7.12616012	      5.27244941	     18.23651201	     14.96765927	      0.00000000	      5.71849881	     -2.41476096	    -14.96131106	      5.25678015	      6.77108496	     -4.64137163	      0.00000000	    -20.70507447	     -4.00313638	      7.39237928	     32.74486304	     25.79552750	     77.62752719	    130.75546324	    118.05054683	     20.15026072	     17.56649029	     26.78659137	    139.33708728	    117.67860446
      0.15000000	      1.08295680	     -5.61501299	    -10.10068796	      0.80760359	      0.89393003	     -0.52956417	      5.52689254	      4.06829930	     -6.92904639	      5.06243038	     17.71631647	     15.03465128	      0.00000000	      4.97167604	     -2.46563496	    -14.73970384	      4.85508463	      6.85742045	     -4.51838965	      0.00000000	    -21.23497342	     -4.10405094	      8.15530999	     33.35410657	     24.99421631	     75.59827380	    130.82725841	    117.66120799	     19.01150520	     17.47653329	     28.26714022	    142.34082475	    117.38009381
      0.16666670	      1.02493587	     -5.56297292	     -9.93217201	      0.80632744	      0.89497718	     -0.52976329	      5.43248543	      4.05424368	     -6.89210016	      5.03511271	     17.72159320	     15.04574663	      0.00000000	      4.90189633	     -2.45387932	    -14.71788651	      4.76830429	      6.91822853	     -4.53988173	      0.00000000	    -21.26136969	     -4.27994401	      8.16235964	     33.39635221	     24.90503268	     75.56867312	    130.73225134	    117.65165290	     18.99419887	     17.44216198	     28.28665926	    142.34406507	    117.36631475
      0.18333330	      1.87593981	     -5.34679569	     -9.93497005	      0.80349054	      0.89901927	     -0.52886803	      4.19386447	      3.77618367	     -6.70849401	      4.45049411	     17.71237410	     15.18208865	      0.00000000	      3.76068503	     -2.05010709	    -14.31160143	      4.24584386	      6.20126378	     -4.37399612	      0.00000000	    -22.23268079	     -4.72269149	      8.24359883	     33.86097967	     24.49534927	     74.75574563	    128.82773842	    117.45560465	     19.84803589	     17.50791291	     28.77896078	    141.48637861	    117.02372796
